<svg xmlns="http://www.w3.org/2000/svg" width="115.537" height="135.844" viewBox="0 0 115.537 135.844">
  <g id="search_document" transform="translate(-24.945 -6.996)">
    <g id="Group_52" data-name="Group 52" transform="translate(24.945 6.996)">
      <g id="Group_47" data-name="Group 47" transform="translate(0 0)">
        <g id="Group_46" data-name="Group 46">
          <g id="Group_44" data-name="Group 44" transform="translate(0 0)">
            <g id="Group_31" data-name="Group 31" transform="translate(102.855 19.572)">
              <path id="Path_55" data-name="Path 55" d="M1286.832,330.059a2.117,2.117,0,0,1-2.123-2.123l-.009-97.514a2.123,2.123,0,1,1,4.245,0l.009,97.514A2.117,2.117,0,0,1,1286.832,330.059Z" transform="translate(-1284.7 -228.3)"/>
            </g>
            <g id="Group_32" data-name="Group 32">
              <path id="Path_56" data-name="Path 56" d="M220.832,134.618h-97.01A2.117,2.117,0,0,1,121.7,132.5V9.123A2.117,2.117,0,0,1,123.823,7h84.195a2.123,2.123,0,0,1,0,4.245H125.945V130.373h94.887a2.123,2.123,0,0,1,0,4.245Z" transform="translate(-121.7 -7)"/>
            </g>
            <g id="Group_43" data-name="Group 43" transform="translate(15.795 18.563)">
              <g id="Group_33" data-name="Group 33">
                <path id="Path_57" data-name="Path 57" d="M347.332,221.145h-44.91a2.123,2.123,0,0,1,0-4.245h44.91a2.123,2.123,0,0,1,0,4.245Z" transform="translate(-300.3 -216.9)"/>
              </g>
              <g id="Group_34" data-name="Group 34" transform="translate(0 14.442)">
                <path id="Path_58" data-name="Path 58" d="M347.934,384.445H302.423a2.123,2.123,0,0,1,0-4.245h45.511a2.123,2.123,0,0,1,0,4.245Z" transform="translate(-300.3 -380.2)"/>
              </g>
              <g id="Group_35" data-name="Group 35" transform="translate(55.646 14.442)">
                <path id="Path_59" data-name="Path 59" d="M947.259,384.445H931.623a2.123,2.123,0,0,1,0-4.245h15.636a2.123,2.123,0,0,1,0,4.245Z" transform="translate(-929.5 -380.2)"/>
              </g>
              <g id="Group_36" data-name="Group 36" transform="translate(0 28.884)">
                <path id="Path_60" data-name="Path 60" d="M328.459,547.745H302.423a2.123,2.123,0,1,1,0-4.245h26.037a2.123,2.123,0,0,1,0,4.245Z" transform="translate(-300.3 -543.5)"/>
              </g>
              <g id="Group_37" data-name="Group 37" transform="translate(36.163 28.884)">
                <path id="Path_61" data-name="Path 61" d="M746.442,547.745h-35.12a2.123,2.123,0,0,1,0-4.245h35.12a2.123,2.123,0,0,1,0,4.245Z" transform="translate(-709.2 -543.5)"/>
              </g>
              <g id="Group_38" data-name="Group 38" transform="translate(0 43.335)">
                <path id="Path_62" data-name="Path 62" d="M342.229,711.145H302.423a2.123,2.123,0,1,1,0-4.245h39.807a2.123,2.123,0,0,1,0,4.245Z" transform="translate(-300.3 -706.9)"/>
              </g>
              <g id="Group_39" data-name="Group 39" transform="translate(0 57.778)">
                <path id="Path_63" data-name="Path 63" d="M326.177,874.445H302.423a2.123,2.123,0,1,1,0-4.245h23.755a2.123,2.123,0,0,1,0,4.245Z" transform="translate(-300.3 -870.2)"/>
              </g>
              <g id="Group_40" data-name="Group 40" transform="translate(0 72.22)">
                <path id="Path_64" data-name="Path 64" d="M332.448,1037.745H302.423a2.123,2.123,0,1,1,0-4.245h30.025a2.123,2.123,0,1,1,0,4.245Z" transform="translate(-300.3 -1033.5)"/>
              </g>
              <g id="Group_42" data-name="Group 42" transform="translate(0 86.671)">
                <g id="Group_41" data-name="Group 41">
                  <path id="Path_65" data-name="Path 65" d="M337.064,1201.145H302.423a2.123,2.123,0,1,1,0-4.245h34.642a2.123,2.123,0,0,1,0,4.245Z" transform="translate(-300.3 -1196.9)"/>
                </g>
              </g>
            </g>
          </g>
          <g id="Group_45" data-name="Group 45" transform="translate(84.195)">
            <path id="Path_66" data-name="Path 66" d="M1094.483,30.813h-18.661a2.117,2.117,0,0,1-2.123-2.123V9.119a2.125,2.125,0,0,1,3.661-1.468l18.661,19.572a2.125,2.125,0,0,1-1.539,3.591Zm-16.538-4.245h11.586l-11.586-12.152Z" transform="translate(-1073.7 -6.996)"/>
          </g>
        </g>
      </g>
      <g id="Group_51" data-name="Group 51" transform="translate(45.821 66.109)">
        <g id="Group_48" data-name="Group 48">
          <path id="Path_67" data-name="Path 67" d="M666.65,808.2a26.844,26.844,0,1,1,18.988-7.862A26.7,26.7,0,0,1,666.65,808.2Zm0-49.438a22.588,22.588,0,1,0,15.981,6.606A22.538,22.538,0,0,0,666.65,758.763Z" transform="translate(-639.8 -754.5)"/>
        </g>
        <g id="Group_49" data-name="Group 49" transform="translate(38.909 38.927)">
          <path id="Path_68" data-name="Path 68" d="M1104.155,1225.458a6.416,6.416,0,0,1-4.537-1.875l-19.245-19.244a2.12,2.12,0,0,1,3-3l19.244,19.244a2.17,2.17,0,0,0,3.069-3.069l-19.244-19.244a2.12,2.12,0,0,1,3-3l19.244,19.245a6.4,6.4,0,0,1-4.528,10.94Z" transform="translate(-1079.75 -1194.65)"/>
        </g>
        <g id="Group_50" data-name="Group 50" transform="translate(7.615 7.615)">
          <path id="Path_69" data-name="Path 69" d="M745.136,879.071a19.236,19.236,0,1,1,13.6-32.838h0a19.236,19.236,0,0,1-13.6,32.838Zm0-34.208a14.962,14.962,0,1,0,10.6,4.378h0A14.937,14.937,0,0,0,745.136,844.863Z" transform="translate(-725.9 -840.6)"/>
        </g>
      </g>
    </g>
  </g>
</svg>
